<?xml version="1.0" encoding="UTF-8" standalone="no"?>
<!-- Generator: Adobe Illustrator 12.0.0, SVG Export Plug-In . SVG Version: 6.00 Build 51448)  -->

<svg
   xmlns:dc="http://purl.org/dc/elements/1.1/"
   xmlns:cc="http://creativecommons.org/ns#"
   xmlns:rdf="http://www.w3.org/1999/02/22-rdf-syntax-ns#"
   xmlns:svg="http://www.w3.org/2000/svg"
   xmlns="http://www.w3.org/2000/svg"
   xmlns:sodipodi="http://sodipodi.sourceforge.net/DTD/sodipodi-0.dtd"
   xmlns:inkscape="http://www.inkscape.org/namespaces/inkscape"
   version="1.0"
   id="Layer_1"
   width="223.44118"
   height="251.411"
   viewBox="0 0 223.44118 251.411"
   overflow="visible"
   enable-background="new 0 0 223.444 392.572"
   xml:space="preserve"
   inkscape:version="0.48.4 r9939"
   sodipodi:docname="Universal emblem_(Boy_Scouts_of_America).svg"
   style="overflow:visible"><metadata
   id="metadata358"><rdf:RDF><cc:Work
       rdf:about=""><dc:format>image/svg+xml</dc:format><dc:type
         rdf:resource="http://purl.org/dc/dcmitype/StillImage" /><dc:title></dc:title></cc:Work></rdf:RDF></metadata><defs
   id="defs356" /><sodipodi:namedview
   pagecolor="#ffffff"
   bordercolor="#666666"
   borderopacity="1"
   objecttolerance="10"
   gridtolerance="10"
   guidetolerance="10"
   inkscape:pageopacity="0"
   inkscape:pageshadow="2"
   inkscape:window-width="1280"
   inkscape:window-height="738"
   id="namedview354"
   showgrid="false"
   inkscape:snap-nodes="true"
   inkscape:zoom="1.1692123"
   inkscape:cx="112.57695"
   inkscape:cy="46.301775"
   inkscape:window-x="-8"
   inkscape:window-y="-8"
   inkscape:window-maximized="1"
   inkscape:current-layer="Layer_1"
   fit-margin-top="0"
   fit-margin-left="0"
   fit-margin-right="0"
   fit-margin-bottom="0" />

















<g
   id="g3486"
   transform="translate(-3.2617746e-4,0)"><path
     id="path5"
     d="M 111.71,0 C 110.67,8.206 91.88,38.661 91.88,38.661 81.982,55.643 77.092,68.316 77.092,68.316 72.394,79.358 71.584,95.777 71.584,95.777 57.301,82.813 40.393,82.107 40.393,82.107 20.437,80.002 11.153,92.491 11.153,92.491 -8.436,113.159 3.74,138.47 3.74,138.47 c 7.438,18.084 33.958,30.965 33.958,30.965 -3.079,-29.614 13.53,-31.268 13.53,-31.268 16.366,-4.039 25.358,11.572 25.358,11.572 7.566,11.019 7.456,22.678 7.456,22.678 0,8.898 0,13.955 0,13.955 -0.589,13.334 -14.497,9.973 -14.497,9.973 -13.225,-3.575 -13.53,-15.844 -13.53,-15.844 -14.492,6.226 -14.412,20.17 -14.412,20.17 -1.65,16.484 11.999,23.539 11.999,23.539 20.51,10.168 34.586,-7.402 34.586,-7.402 10.499,27.543 23.521,34.576 23.521,34.576 l 0.022,0.027 c 0,0 13.023,-7.031 23.522,-34.574 0,0 14.075,17.568 34.586,7.402 0,0 13.647,-7.053 11.997,-23.539 0,0 0.08,-13.944 -14.41,-20.171 0,0 -0.307,12.27 -13.53,15.845 0,0 -13.908,3.361 -14.497,-9.974 0,0 -0.243,-9.419 0,-13.954 0.243,-4.535 -0.11,-11.659 7.455,-22.678 0,0 8.992,-15.611 25.359,-11.572 0,0 16.608,1.653 13.53,31.269 0,0 26.521,-12.882 33.959,-30.967 0,0 12.176,-25.31 -7.414,-45.978 0,0 -9.283,-12.49 -29.239,-10.385 0,0 -16.908,0.707 -31.192,13.671 0,0 -0.81,-16.419 -5.508,-27.461 0,0 -4.89,-12.673 -14.786,-29.655 0,0 -18.794,-30.455 -19.832,-38.661"
     inkscape:connector-curvature="0"
     style="fill:#231f20" /><g
     id="g3483"><path
       d="m 111.717,6 c -1.4,7.329 -22.673,40.695 -22.673,40.695 -9.105,16.91 -12.822,28.617 -12.822,28.617 -2.912,11.756 -3.345,23.6 -3.345,23.6 C 59.126,85.162 42.402,83.674 42.402,83.674 25.863,81.631 17.873,88.877 17.873,88.877 0.231,102.083 1.707,120.097 1.707,120.097 c 0,31.59 34.19,45.898 34.19,45.898 -1.735,-32.333 20.44,-29.856 20.44,-29.856 14.99,0 22.053,13.751 22.053,13.751 9.729,15.689 7.185,36.67 7.185,36.67 -1.115,15.732 -17.839,10.776 -17.839,10.776 -11.168,-3.598 -12.884,-14.617 -12.884,-14.617 -12.885,6.444 -11.893,20.688 -11.893,20.688 1.362,21.68 21.556,22.301 21.556,22.301 14.369,0.99 24.065,-11.586 24.065,-11.586 11.985,30.105 23.16,34.629 23.16,34.629 l -0.029,-0.045 c 0,0 11.174,-4.523 23.159,-34.627 0,0 9.696,12.576 24.065,11.584 0,0 20.194,-0.619 21.556,-22.299 0,0 0.992,-14.245 -11.892,-20.689 0,0 -1.716,11.02 -12.884,14.62 0,0 -16.725,4.957 -17.841,-10.778 0,0 -2.542,-20.979 7.187,-36.67 0,0 7.063,-13.751 22.051,-13.751 0,0 22.177,-2.478 20.442,29.857 0,0 34.19,-14.309 34.19,-45.899 0,0 1.473,-18.014 -16.169,-31.218 0,0 -7.988,-7.247 -24.527,-5.203 0,0 -16.726,1.486 -30.476,15.237 0,0 -0.433,-11.844 -3.346,-23.6 0,0 -3.715,-11.707 -12.822,-28.617 0,0 -21.271,-33.365 -22.672,-40.695"
       id="path7"
       inkscape:connector-curvature="0"
       style="fill:#edc91a" /></g><path
     id="path9"
     d="m 111.717,21.178 -1.327,74.59 h -2.416 L 110.39,23.271 C 107.788,29.932 98.869,44.393 98.869,44.393 89.95,59.425 84.933,76.549 84.933,76.549 80.287,88.727 81.03,108.516 81.03,108.516 H 78.429 C 77.871,98.241 79.915,86.634 79.915,86.634 81.401,73.505 90.135,56.571 90.135,56.571 104.629,29.361 111.717,15.97 111.717,15.97 l -0.007,-0.047 c 0,0 7.086,13.391 21.581,40.601 0,0 8.733,16.935 10.221,30.064 0,0 2.042,11.607 1.484,21.882 h -2.601 c 0,0 0.745,-19.79 -3.9,-31.967 0,0 -5.019,-17.125 -13.938,-32.157 0,0 -8.919,-14.461 -11.521,-21.121 l 2.416,72.496 h -2.416 L 111.71,21.132"
     inkscape:connector-curvature="0"
     style="fill:#231f20" /><path
     id="path11"
     d="M 110.433,128.51 H 52.845 c 0,0 -25.52,2.385 -23.538,28.648 0,0 -24.158,-13.009 -24.158,-38.404 0,0 0.99,-20.441 20.688,-29.236 l 47.324,31.589 h 37.271 -0.043 37.272 l 47.323,-31.589 c 19.697,8.795 20.688,29.236 20.688,29.236 0,25.396 -24.157,38.404 -24.157,38.404 1.98,-26.263 -23.538,-28.648 -23.538,-28.648 H 110.39"
     inkscape:connector-curvature="0"
     style="fill:#231f20" /><path
     id="path13"
     d="M 110.31,127.054 H 57.535 c 0,0 -3.238,-0.967 -7.249,0.003 -8.7,2.103 -21.089,6.369 -23.078,26.299 0,0 -21.463,-11.88 -20.154,-35.346 0,0 1.548,-19.512 18.272,-25.767 l 46.457,30.475 h 38.651 38.441 L 195.33,92.243 c 17.839,10.035 18.3,25.085 18.3,25.085 2.502,21.588 -19.647,35.493 -19.647,35.493 -2.115,-22.372 -20.304,-26.82 -26.315,-25.954 -2.713,0.392 -4.544,0.187 -4.544,0.187 h -52.776"
     inkscape:connector-curvature="0"
     style="fill:#edc91a" /><path
     id="path15"
     d="M 111.775,172.105 H 81.598 c 0,0 -6.05,0.374 -6.05,7.311 v 0.04 c 0,6.936 6.05,7.31 6.05,7.31 h 30.177 0.01 30.176 c 0,0 6.05,-0.374 6.05,-7.31 v -0.04 c 0,-6.937 -6.05,-7.311 -6.05,-7.311 h -30.176"
     inkscape:connector-curvature="0"
     style="fill:#231f20" /><path
     id="path17"
     d="M 111.817,238.077 C 92.744,219.007 91.89,185.834 91.89,185.834 h -1.982 c -1.703,23.479 -13.904,28.925 -13.904,28.925 -12.635,7.063 -21.81,-2.457 -21.81,-2.457 -6.292,-8.959 -1.42,-17.242 -1.42,-17.242 5.668,9.291 14.959,9.476 14.959,9.476 19.233,2.043 21.463,-18.581 21.463,-18.581 H 88.295 C 84.421,206.208 66.524,202.77 66.524,202.77 57.883,202.12 52.68,191.622 52.68,191.622 c -4.181,7.154 -3.345,12.449 -3.345,12.449 0.464,13.658 15.887,15.383 15.887,15.383 11.148,0.285 16.301,-6.277 16.301,-6.277 9.672,-10.531 8.415,-21.803 8.415,-21.803 6.567,39.395 21.879,49.926 21.879,49.926 h -0.032 c 0,0 15.312,-10.531 21.878,-49.926 0,0 -1.256,11.271 8.415,21.803 0,0 5.154,6.563 16.301,6.277 0,0 15.423,-1.725 15.886,-15.383 0,0 0.837,-5.295 -3.344,-12.449 0,0 -5.204,10.498 -13.844,11.148 0,0 -17.898,3.438 -21.771,-16.815 h -0.9 c 0,0 2.232,20.624 21.464,18.581 0,0 9.291,-0.186 14.958,-9.476 0,0 4.872,8.283 -1.418,17.242 0,0 -9.177,9.52 -21.811,2.457 0,0 -12.203,-5.445 -13.906,-28.925 h -1.979 c 0,0 -0.855,33.173 -19.928,52.243"
     inkscape:connector-curvature="0"
     style="fill:#231f20" /><path
     id="path19"
     d="M 111.775,173.262 H 82.617 c 0,0 -5.846,0.313 -5.846,6.137 v 0.032 c 0,5.823 5.846,6.138 5.846,6.138 h 29.158 0.01 29.158 c 0,0 5.844,-0.314 5.844,-6.138 v -0.032 c 0,-5.823 -5.844,-6.137 -5.844,-6.137 h -29.158"
     inkscape:connector-curvature="0"
     style="fill:#edc91a" /><path
     id="path21"
     d="m 126.949,95.293 c 0,0 -2.159,-1.313 -4.21,-1.313 -2.049,0 0,0 0,0 0,0 -4.283,0.163 -5.915,-0.818 0,0 -2.352,-1.444 -6.479,-2.994 0,0 -4.15,-1.767 -6.597,-0.713 0,0 -1.985,0.309 -3.439,2.725 -1.454,2.417 0,0 0,0 0,0 -5.146,-1.746 -8.584,-0.814 -3.439,0.932 0,0 0,0 0,0 -4.041,0.723 -4.041,5.298 0,4.576 0,0 0,0 0,0 -0.234,2.299 3.483,4.901 0,0 0,-1.951 0.581,-2.625 0,0 2.57,1.945 6.627,5.293 4.058,3.348 0,0 0,0 0,0 4.708,4.207 4.708,6.483 0,0 0.585,1.564 -2.773,4.615 -3.358,3.051 0,0 0,0 0,0 -2.181,1.657 -2.072,2.958 0.106,1.301 0,0 0,0 0,0 -1.333,1.533 -3.703,1.533 0,0 -3.577,1.998 -11.289,-9.385 0,0 -4.776,-7.751 -20.474,-14.212 -15.699,-6.46 0,0 0,0 0,0 -3.231,-1.659 -10.223,-3.631 -6.993,-1.973 0,0 0,0 0,0 -21.643,-5.74 -26.97,-7.722 0,0 -1.919,-0.805 -3.221,0.497 0,0 -3.035,4.521 0.744,6.937 0,0 -1.169,3.996 -0.461,5.28 0.708,1.285 0,0 0,0 0,0 0.646,0.852 3.248,2.709 0,0 0.912,8.338 4.521,8.92 0,0 1.425,4.955 5.141,6.008 0,0 3.778,4.708 6.38,5.08 0,0 2.292,4.026 5.885,4.707 0,0 3.283,3.406 4.832,3.592 0,0 2.625,3.095 4.911,3.564 2.285,0.469 0,0 0,0 0,0 3.095,3.437 5.596,4.056 2.501,0.619 0,0 0,0 0,0 9.56,8.068 15.074,8.068 5.514,0 0,0 0,0 0,0 2.371,0.407 4.098,-1.973 1.726,-2.379 0,0 0,0 0,0 1.125,3.036 -0.577,4.738 -1.701,1.701 0,0 0,0 0,0 -4.573,4.156 -4.573,9.174 0,0 0.557,8.485 1.981,14.556 1.426,6.07 0,0 0,0 0,0 1.487,4.831 -3.096,11.892 0,0 4.475,1.326 7.619,-2.229 0,0 2.477,-3.468 3.097,-6.751 0,0 0.712,2.137 1.239,2.663 0,0 -0.121,5.033 1.177,6.814 0,0 -0.369,2.356 -6.69,8.548 0,0 -0.681,0.744 -4.025,1.239 0,0 -3.221,1.117 -4.77,3.964 0,0 -0.186,3.158 0.744,5.263 0,0 1.13,1.111 1.611,-0.246 0,0 0.389,-1.721 0.389,-2.564 0,-0.843 0,0 0,0 l 2.767,-1.044 0,0 c 0,0 -1.505,4.212 0.333,6.605 1.837,2.393 0,0 0,0 0,0 1.353,2.186 2.431,2.041 1.078,-0.145 0,0 0,0 0,0 1.141,-0.889 1.017,-3.799 0,0 0.155,-2.23 1.75,-4.088 0,0 1.966,-1.24 2.957,1.795 0,0 0.806,3.285 1.55,4.771 0,0 1.492,1.975 2.291,-0.559 0,0 0.991,-4.088 -1.054,-9.166 0,0 -0.434,-0.744 0.186,-2.974 0,0 0.435,-3.283 6.381,-7.805 0,0 1.844,1.241 -0.735,8.363 -2.581,7.123 -0.058,0.189 -0.058,0.189 0,0 -4.281,11.41 -2.738,16.843 0,0 2.347,4.934 6.47,4.934 4.122,0 0,0 0,0 0,0 1.024,2.498 4.431,2.498 0,0 1.995,0.227 2.974,-0.557 0,0 0.435,2.045 3.222,2.727 0,0 3.272,0.803 4.087,-1.363 0,0 1.118,0.434 3.781,0.063 0,0 1.794,-0.682 3.096,-3.902 0,0 2.849,-0.311 6.068,-1.551 0,0 1.673,-0.611 1.673,-5.201 0,0 -1.229,-8.004 -3.431,-13.478 -2.204,-5.477 0,0 0,0 0,0 -2.411,-4.882 -2.411,-8.494 0,-3.61 0,0 0,0 0,0 5.656,1.654 7.329,9.458 0,0 -2.725,4.369 -1.361,7.185 0,0 0.892,1.951 2.18,3.516 1.288,1.565 0,0 0,0 0,0 1.579,1.688 1.474,-1.037 0,0 -0.774,-4.768 1.103,-5.971 1.877,-1.201 0,0 0,0 0,0 1.808,-0.718 3.729,0.828 0,0 0.744,0.434 0.992,3.469 0,0 0.864,3.656 2.849,-1.238 0,0 0.289,-1.67 -0.495,-4.15 0,0 3.107,-1.201 3.107,2.281 0,0 0.289,1.137 0.795,2.057 0,0 1.921,1.795 1.921,-0.807 0,0 0.805,-2.973 -0.807,-6.193 0,0 -2.413,-3.284 -6.068,-3.284 0,0 -0.642,-0.006 -2.787,-2.151 -2.145,-2.146 0,0 0,0 0,0 -3.905,-4.602 -5.516,-6.211 0,0 -0.665,-0.318 0.776,-2.146 1.444,-1.826 0,0 0,0 0,0 1.703,-2.314 1.703,-3.615 0,0 1.608,4.523 9.414,4.523 0,0 -2.913,-5.823 -2.415,-12.822 0,0 -0.395,-3.717 1.476,-9.509 0,0 1.559,-4.428 0.383,-8.27 0,0 -0.809,-3.354 -3.873,-6.013 -3.064,-2.659 0,0 0,0 0,0 0.351,-1.254 0.351,-3.34 0,0 2.156,2.609 4.821,2.295 0,0 0.548,0.408 3.477,-2.295 0,0 2.35,0.125 4.268,-1.486 0,0 0.062,0.311 1.549,-2.416 0,0 2.168,0.247 6.068,-2.292 0,0 2.108,0.434 4.648,-3.283 0,0 1.547,-0.124 4.15,-3.655 0,0 2.477,-0.31 4.893,-3.655 0,0 2.539,0.434 6.194,-4.088 0,0 4.336,-2.168 5.388,-6.318 0,0 4.018,-0.547 6.252,-6.994 0,0 4.464,-1.244 6.137,-9.73 0,0 2.35,-3.159 2.35,-7.433 0,0 3.783,-3.345 1.678,-5.946 0,0 -2.537,-2.474 -5.389,-0.68 0,0 -7.423,3.162 -15.666,5.08 -8.245,1.919 0,0 0,0 0,0 -10.864,2.417 -19.495,5.389 -8.633,2.972 0,0 0,0 0,0 -9.653,3.307 -15.834,8.405 -6.178,5.097 0,0 0,0 0,0 -4.178,2.015 -6.911,5.662 -2.734,3.646 0,0 0,0 0,0 -4.038,7.797 -6.328,9.531 0,0 -3.655,3.964 -6.627,-0.496 0,0 -1.116,-1.31 -0.312,-7.376 0.807,-6.065 0,0 0,0 0,0 0.41,-4.589 -1.213,-5.953 -1.622,-1.364 0,0 0,0 0,0 2.604,-0.422 2.065,-2.063 -0.541,-1.641 0,0 0,0 0,0 -1.79,-3.445 -3.8,-4.436 -2.013,-0.99 0,0 0,0 0,0 4.188,-1.696 4.835,-3.26"
     inkscape:connector-curvature="0"
     style="fill:#231f20" /><g
     id="tail">
	<path
   id="path24"
   d="m 101.411,188.304 c 1.732,0 0.692,-1.73 1.042,-2.417 2.073,1.383 -0.35,3.105 0.343,4.835 -1.385,0.357 -2.073,-0.348 -2.771,-1.024 v -5.542 c 2.77,0 -1.039,3.114 1.386,4.148"
   inkscape:connector-curvature="0"
   style="fill:#593f1a" />
	<path
   id="path26"
   d="m 119.05,190.375 0.346,-2.768 0.347,0.349 c 1.035,-0.686 1.387,-2.068 1.387,-3.442 1.031,1.712 -10e-4,5.184 -2.08,5.861"
   inkscape:connector-curvature="0"
   style="fill:#593f1a" />
	<path
   id="path28"
   d="m 115.249,193.151 h -0.351 v -3.113 h 0.351 c 0,0.337 0.337,0.685 0.337,0.685 0.696,-1.024 2.427,-1.382 1.741,-3.115 0.337,1.385 -0.353,4.148 -2.078,5.543"
   inkscape:connector-curvature="0"
   style="fill:#593f1a" />
	<path
   id="path30"
   d="m 105.216,187.956 c 0.345,0.707 -0.69,3.124 1.037,4.152 l 0.691,-3.115 0.348,5.194 c -2.425,-0.697 -2.767,-3.812 -2.425,-6.231 h 0.349 z"
   inkscape:connector-curvature="0"
   style="fill:#593f1a" />
	<path
   id="path32"
   d="m 112.475,193.151 v -2.776 h 1.036 c -0.346,1.733 -0.346,3.812 -1.727,5.531 -1.727,0.709 -2.075,-1.379 -2.764,-2.061 v -3.807 c 2.765,-0.34 -0.692,7.262 3.455,3.113"
   inkscape:connector-curvature="0"
   style="fill:#593f1a" />
	<path
   id="path34"
   d="m 125.625,212.514 c -1.034,0 -1.724,1.031 -2.769,0.686 0,-7.254 -1.728,-14.17 -3.461,-20.738 l 1.382,-0.354 3.456,18.332 c 1.732,-6.229 -1.026,-13.826 -2.42,-20.065 2.421,6.567 7.614,14.874 3.812,22.139 z"
   inkscape:connector-curvature="0"
   style="fill:#593f1a" />
	<path
   id="path36"
   d="m 97.95,202.831 -0.692,8.646 h 1.037 c 0.347,-6.578 1.73,-14.177 5.191,-18.675 -1.725,6.575 -4.5,13.144 -4.152,20.743 -2.768,0 -3.459,-3.105 -4.151,-5.184 0,-6.564 1.383,-12.095 4.151,-17.282 2.769,2.766 -1.04,7.951 -1.384,11.752"
   inkscape:connector-curvature="0"
   style="fill:#593f1a" />
	<path
   id="path38"
   d="m 118.012,217.36 -2.427,-0.348 c -0.337,-7.266 1.043,-14.879 -1.029,-21.107 l 1.029,-1.379 c 1.389,6.236 2.777,13.138 2.078,20.066 3.114,-6.928 -0.337,-14.875 -0.337,-21.441 2.07,6.916 6.908,17.98 0.686,24.209 z"
   inkscape:connector-curvature="0"
   style="fill:#593f1a" />
	<path
   id="path40"
   d="m 106.253,195.229 c -1.728,6.568 -5.184,13.132 -2.768,20.05 0,-6.918 1.73,-13.146 3.807,-19.013 l -0.691,19.359 c -0.693,1.387 -3.458,1.387 -4.498,0 -2.426,-6.574 0,-14.186 2.765,-20.396 h 1.385 z"
   inkscape:connector-curvature="0"
   style="fill:#593f1a" />
	<path
   id="path42"
   d="m 111.091,217.696 c 1.038,-6.564 -0.692,-14.865 1.73,-20.753 2.427,5.888 2.764,15.919 -0.347,22.148 -6.567,0.336 -3.454,-7.273 -4.147,-11.426 l 1.033,-10.722 c 1.731,6.575 0.001,14.534 1.731,20.753 z"
   inkscape:connector-curvature="0"
   style="fill:#593f1a" />
</g><g
     id="left_wing">
	<path
   id="path45"
   d="m 44.683,100.487 0.345,2.417 c -7.611,-1.045 -16.604,-0.695 -21.099,-6.576 l 0.352,-3.114 c 6.568,3.462 13.485,4.846 20.402,7.273 z"
   inkscape:connector-curvature="0"
   style="fill:#593f1a" />
	<path
   id="path47"
   d="m 59.902,104.626 c -4.148,0 -11.068,1.73 -13.144,-2.768 l -0.347,-1.034 c 4.498,1.035 9.685,0.697 13.491,3.802 z"
   inkscape:connector-curvature="0"
   style="fill:#593f1a" />
	<path
   id="path49"
   d="m 50.559,107.401 c -7.256,0.678 -14.869,1.375 -21.09,-1.393 l -1.384,-4.487 c 6.567,3.791 17.29,0 22.474,5.88"
   inkscape:connector-curvature="0"
   style="fill:#593f1a" />
	<path
   id="path51"
   d="m 65.438,107.741 c -3.461,0.696 -8.992,3.463 -12.451,0 l -0.692,-0.688 c 4.493,0.348 8.989,-2.765 13.143,0.688 z"
   inkscape:connector-curvature="0"
   style="fill:#593f1a" />
	<path
   id="path53"
   d="m 55.061,111.552 c -4.844,3.095 -16.954,3.453 -22.484,-0.348 v -1.732 c 7.607,2.08 16.948,-2.419 22.484,2.08"
   inkscape:connector-curvature="0"
   style="fill:#593f1a" />
	<path
   id="path55"
   d="m 70.28,111.204 c -3.114,2.061 -8.996,2.766 -12.801,0.687 2.075,-2.071 6.917,-0.687 9.687,-2.767 2.075,-1.044 1.383,2.08 3.114,2.08 z"
   inkscape:connector-curvature="0"
   style="fill:#593f1a" />
	<path
   id="path57"
   d="m 74.428,113.969 c -1.726,2.417 -7.953,2.417 -11.759,1.722 l -1.384,-0.687 c 3.465,0.347 10.035,-4.507 13.143,-1.035 z"
   inkscape:connector-curvature="0"
   style="fill:#593f1a" />
	<path
   id="path59"
   d="m 59.554,115.351 c -4.84,2.767 -13.143,4.837 -19.371,2.767 l -1.729,-2.079 c 6.92,0.347 14.532,-3.802 20.755,-1.035 l 0.345,0.347 z"
   inkscape:connector-curvature="0"
   style="fill:#593f1a" />
	<path
   id="path61"
   d="m 77.893,117.413 c -3.122,1.392 -8.652,2.775 -12.455,0.357 4.495,0.688 9.333,-3.454 12.455,-0.357 z"
   inkscape:connector-curvature="0"
   style="fill:#593f1a" />
	<path
   id="path63"
   d="m 64.057,119.154 c -4.503,1.382 -13.84,7.949 -19.721,2.07 l 15.566,-3.811 c 2.075,-0.678 2.766,1.045 4.155,1.741 z"
   inkscape:connector-curvature="0"
   style="fill:#593f1a" />
	<path
   id="path65"
   d="m 79.967,121.224 c -3.119,1.044 -7.611,1.044 -10.726,0 3.114,0 8.299,-3.811 10.726,0 z"
   inkscape:connector-curvature="0"
   style="fill:#593f1a" />
	<path
   id="path67"
   d="m 68.897,122.606 c -5.884,2.08 -13.143,6.915 -18.338,2.766 5.195,-1.383 11.07,-2.418 15.57,-5.532 l 2.768,2.766 z"
   inkscape:connector-curvature="0"
   style="fill:#593f1a" />
	<path
   id="path69"
   d="m 80.657,124.337 c 0.344,0.696 1.382,0 1.036,1.035 -2.766,0 -7.612,1.731 -9.337,-1.723 3.461,-0.346 6.92,-1.043 10.028,-1.382 l -1.727,2.07 z"
   inkscape:connector-curvature="0"
   style="fill:#593f1a" />
	<path
   id="path71"
   d="m 72.355,126.417 c -4.843,2.418 -11.071,5.522 -16.602,3.454 4.148,-2.419 10.023,-3.803 15.218,-5.881 l 1.384,2.427 z"
   inkscape:connector-curvature="0"
   style="fill:#593f1a" />
	<path
   id="path73"
   d="m 83.423,126.417 c -1.73,0.339 -0.691,2.418 -1.04,3.454 -2.074,1.044 -5.184,-0.349 -5.875,-2.079 2.076,-0.341 4.492,-1.036 6.915,-1.375 z"
   inkscape:connector-curvature="0"
   style="fill:#593f1a" />
	<path
   id="path75"
   d="m 75.464,128.487 c -2.762,3.114 -7.259,4.149 -11.407,5.879 l -4.155,-1.73 14.178,-5.88 c 0.691,0.695 0.691,1.383 1.384,1.731"
   inkscape:connector-curvature="0"
   style="fill:#593f1a" />
	<path
   id="path77"
   d="m 79.618,131.601 c -3.109,3.104 -7.607,4.497 -11.76,6.228 l -2.773,-1.731 11.423,-5.88 3.11,1.383 z"
   inkscape:connector-curvature="0"
   style="fill:#593f1a" />
	<path
   id="path79"
   d="m 82.383,132.287 c 1.384,4.847 -3.799,5.542 -6.567,7.961 -2.077,0.687 -5.536,0.687 -6.576,-1.732 4.84,-1.382 8.653,-3.81 13.143,-6.229"
   inkscape:connector-curvature="0"
   style="fill:#593f1a" />
	<path
   id="path81"
   d="m 82.039,140.585 c -2.072,1.045 -3.113,3.114 -5.531,1.732 l 5.184,-4.149 c 0.691,0 0.347,1.73 0.347,2.417 z"
   inkscape:connector-curvature="0"
   style="fill:#593f1a" />
	<path
   id="path83"
   d="m 110.589,119.311 c 0,0 -0.008,-0.157 -0.19,-0.157 0,0 -0.554,-0.273 -3.309,1.46 0,0 -1.563,0.807 -2.223,-0.774 0,0 -0.519,-0.78 -1.626,-0.933 0,0 -1.106,-0.388 -2.52,0.4 -1.413,0.788 -4.228,2.832 -6.27,2.832 0,0 -1.955,0.439 -5.653,-2.34 0,0 -3.508,-3.205 -7.212,-8.815 0,0 -1.669,-3.237 -12.009,-9.038 0,0 -10.384,-5.687 -22.271,-8.5 0,0 -4.978,-1.308 -11.324,-3.135 0,0 -9.489,-2.694 -12.055,-3.664 0,0 -1.906,1.017 -0.347,3.81 0,0 9.434,6.934 33.556,10.368 0,0 11.372,7.576 16.602,7.951 0,0 -0.354,0.419 -2.281,0.205 0,0 -1.026,-0.071 -0.396,0.621 0,0 0.934,1.685 3.975,1.841 0,0 3.518,0.134 4.58,1.492 l -3.109,0.686 c 0,0 0.156,1.418 2.244,2.484 0,0 3.455,1.451 3.631,3.049 0,0 -0.432,-0.207 -1.405,-0.103 l 6.493,4.646 c 0,0 -0.613,0.296 -1.844,0.296 0,0 -1.434,-0.135 -2.204,0.344 0,0 3.196,2.382 4.032,2.574 0,0 5.463,1.802 6.347,-2.226 0,0 -1.904,-0.328 -2.252,-0.447 0,0 -1.59,-0.433 -1.898,-1.972 l 6.224,1.382 -1.731,3.106 c 0,0 1.256,-0.704 3.721,-0.823 0,0 3.295,-0.233 4.111,-1.778 0,0 0.477,-0.715 0.477,-1.548 0,0 -0.84,-0.139 -1.586,0.106 0,0 -2.261,0.839 -2.572,-0.793 0,0 0.968,-0.459 2.012,-0.459 0,0 0.882,0.016 2.373,0.316 0,0 1.166,0.197 1.498,0.144 0,0 -0.104,0.853 -0.354,1.276 0,0 -0.327,0.477 -0.681,1.142 0,0 3.108,-0.398 7.446,-5.026 z"
   inkscape:connector-curvature="0"
   style="fill:#593f1a" />
	<path
   id="path85"
   d="M 59.21,98.755 C 48.143,97.71 36.383,94.945 26.349,89.414 c 10.725,3.801 21.101,7.95 32.861,9.341 z"
   inkscape:connector-curvature="0"
   style="fill:#231f20" />
	<g
   id="right_wing">
		<path
   id="path88"
   d="m 200.335,88.031 c -5.539,9.333 -18.329,8.993 -28.367,11.412 -9.689,-2.419 -13.141,8.994 -21.778,7.958 l 1.026,1.723 c -2.069,2.428 -4.84,3.114 -7.604,3.114 1.721,0.697 1.036,3.802 -1.394,4.836 -0.685,0 -2.069,-0.339 -2.415,0.339 l 2.415,1.044 c -1.721,2.079 -3.453,3.461 -5.869,4.149 l 2.416,1.731 c -1.73,1.73 -2.416,4.845 -5.539,4.149 0,-0.696 -1.036,-1.036 -1.373,-1.731 1.036,0 3.112,-1.384 1.373,-2.418 -0.688,-0.349 -1.373,-1.383 -2.072,-1.731 -0.346,1.043 1.735,3.461 -1.042,3.461 l 0.346,2.071 c -1.721,-1.036 -4.492,0.348 -6.225,-1.383 l 3.461,-1.036 c 0,-1.731 -1.373,-2.071 -2.069,-3.114 l -0.349,2.08 -3.116,-0.349 v 2.079 c -2.765,-2.079 -6.912,-2.767 -8.297,-6.577 1.722,-0.34 2.072,2.079 3.11,3.463 l 2.769,-3.463 3.465,2.767 c 1.719,-5.193 5.184,2.766 8.646,-1.035 5.878,-4.497 6.912,-13.492 13.828,-15.9 14.876,-11.76 34.938,-12.108 51.88,-19.71 1.74,-0.696 2.438,0.338 2.774,2.071 z"
   inkscape:connector-curvature="0"
   style="fill:#593f1a" />
		<path
   id="path90"
   d="m 174.734,100.825 c -0.691,2.428 -2.417,4.159 -4.833,4.487 -2.766,0 -5.89,0.359 -8.658,-0.328 1.732,-3.82 9.005,-2.775 13.491,-4.159"
   inkscape:connector-curvature="0"
   style="fill:#593f1a" />
		<path
   id="path92"
   d="m 195.491,101.521 c -1.034,3.462 -3.803,5.88 -7.611,6.558 -5.534,1.044 -11.405,0 -16.26,-1.383 4.157,-6.209 11.764,-2.07 17.99,-3.792 2.078,-0.356 3.808,-1.045 5.881,-1.383 z"
   inkscape:connector-curvature="0"
   style="fill:#593f1a" />
		<path
   id="path94"
   d="m 169.55,107.053 c -2.415,4.151 -7.6,1.723 -11.06,1.027 -0.351,-0.678 -1.045,0 -1.746,-0.339 3.465,-3.81 7.955,0.696 12.806,-0.688 z"
   inkscape:connector-curvature="0"
   style="fill:#593f1a" />
		<path
   id="path96"
   d="m 164.699,110.846 c -2.748,4.505 -8.977,1.74 -12.787,0.706 l 1.382,-3.472 c 3.116,2.417 7.264,2.417 11.405,2.766"
   inkscape:connector-curvature="0"
   style="fill:#593f1a" />
		<path
   id="path98"
   d="m 189.61,109.472 c 0,2.08 -2.418,3.463 -4.137,4.845 -6.579,1.035 -13.156,-0.696 -18.687,-3.113 3.461,-3.463 6.227,-2.08 10.716,-1.384 l 12.108,-0.348 z"
   inkscape:connector-curvature="0"
   style="fill:#593f1a" />
		<path
   id="path100"
   d="m 160.906,114.316 c -3.114,5.184 -9.343,1.035 -13.842,0.688 -1.382,-2.069 1.038,-1.035 1.732,-2.767 4.158,0.698 7.949,2.079 12.11,2.079"
   inkscape:connector-curvature="0"
   style="fill:#593f1a" />
		<path
   id="path102"
   d="m 183.729,116.04 c -0.696,2.766 -2.766,4.148 -5.529,4.497 -5.187,-1.036 -10.721,-1.731 -15.225,-4.845 -1.384,-2.756 2.418,-1.044 2.769,-3.453 5.528,2.765 11.42,3.801 17.985,3.801"
   inkscape:connector-curvature="0"
   style="fill:#593f1a" />
		<path
   id="path104"
   d="m 156.41,118.458 c -3.802,2.079 -8.308,0 -12.109,-0.688 l 1.73,-2.079 10.379,2.767 z"
   inkscape:connector-curvature="0"
   style="fill:#593f1a" />
		<path
   id="path106"
   d="m 177.502,122.606 c -5.534,4.497 -13.83,0 -19.362,-3.453 l 3.103,-2.767 16.259,6.22 z"
   inkscape:connector-curvature="0"
   style="fill:#593f1a" />
		<path
   id="path108"
   d="m 152.608,121.224 c -2.418,2.426 -7.274,0.348 -10.389,0 1.394,-3.454 6.928,-0.34 10.389,0 z"
   inkscape:connector-curvature="0"
   style="fill:#593f1a" />
		<path
   id="path110"
   d="m 171.272,126.417 c -0.337,1.375 -2.416,2.766 -4.137,2.07 -4.508,-1.036 -8.995,-2.419 -12.807,-5.88 l 2.416,-2.418 c 4.499,3.114 9.346,4.844 14.528,6.228"
   inkscape:connector-curvature="0"
   style="fill:#593f1a" />
		<path
   id="path112"
   d="m 150.529,123.989 c -2.427,2.079 -6.229,1.044 -8.994,0.697 0.685,-1.383 -2.081,-2.08 -1.385,-2.418 l 10.379,1.721 z"
   inkscape:connector-curvature="0"
   style="fill:#593f1a" />
		<path
   id="path114"
   d="m 166.787,129.87 c -0.351,1.381 -2.42,2.417 -4.159,2.069 -4.487,-0.688 -8.299,-2.418 -11.752,-5.522 l 1.384,-2.428 c 4.485,2.428 8.983,5.532 14.527,5.881 z"
   inkscape:connector-curvature="0"
   style="fill:#593f1a" />
		<path
   id="path116"
   d="m 146.718,126.756 c -0.688,2.765 -4.499,2.079 -6.914,2.079 -3.114,-3.802 4.146,-2.079 6.914,-2.079 z"
   inkscape:connector-curvature="0"
   style="fill:#593f1a" />
		<path
   id="path118"
   d="m 162.279,133.68 c -0.328,2.417 -3.788,1.382 -5.534,1.025 -3.451,-0.687 -6.555,-2.767 -8.995,-5.185 l 1.397,-2.765 c 3.807,3.462 8.299,5.184 13.132,6.925 z"
   inkscape:connector-curvature="0"
   style="fill:#593f1a" />
		<path
   id="path120"
   d="m 157.446,136.437 c -1.724,1.393 -5.187,2.427 -7.256,0.349 -2.088,-2.419 -6.926,-3.105 -4.159,-6.915 3.453,3.113 7.262,5.191 11.415,6.566 z"
   inkscape:connector-curvature="0"
   style="fill:#593f1a" />
		<path
   id="path122"
   d="m 143.613,130.557 c -0.349,1.044 -1.394,1.73 -2.078,2.079 h -1.73 v -2.079 h 3.808 z"
   inkscape:connector-curvature="0"
   style="fill:#593f1a" />
		<path
   id="path124"
   d="m 151.912,139.203 c 0,1.731 -2.765,2.079 -4.848,1.731 l -6.215,-5.873 c 3.101,-4.844 6.901,3.107 11.063,4.142"
   inkscape:connector-curvature="0"
   style="fill:#593f1a" />
		<path
   id="path126"
   d="m 146.376,142.665 c -3.809,2.767 -8.645,-1.73 -6.572,-6.567 l 6.572,6.567 z"
   inkscape:connector-curvature="0"
   style="fill:#593f1a" />
		<path
   id="path128"
   d="m 164.367,97.71 c 10.718,-1.73 21.43,-3.799 31.472,-7.6 -8.298,4.497 -22.487,6.219 -31.472,7.6 z"
   inkscape:connector-curvature="0"
   style="fill:#231f20" />
		<path
   id="path130"
   d="m 194.457,100.487 c -5.532,1.372 -11.424,1.722 -17.639,1.372 v -1.372 c 7.262,-1.732 14.87,-3.123 21.438,-7.272 0.697,2.416 -1.045,5.889 -3.799,7.272 z"
   inkscape:connector-curvature="0"
   style="fill:#593f1a" />
	</g>
</g><g
     id="head">
	<path
   id="path133"
   d="m 111.871,119.331 c 0,0 -1.669,0.353 -1.32,-1.459 0,0 -0.121,-0.315 0.195,-0.797 l -1.036,-1.035 -3.108,2.418 c 0,0 0.219,-2.49 -1.04,-3.106 0,0 -0.894,2.507 -4.839,1.723 0,0 4.277,-3.358 4.277,-6.379 0,0 0.349,-1.583 -2.137,-4.23 0,0 -2.557,-2.746 -6.028,-5.542 0,0 -2.721,-2.073 -3.724,-3.213 L 97.95,98.756 95.875,98.4 c 0,0 -0.004,1.607 3.388,1.807 0,0 2.961,0.204 1.969,-2.471 0,0 -1.552,-2.464 -3.827,-2.627 0,0 -2.21,-0.162 -3.603,-0.162 l 1.247,1.25 c 0,0 -4.447,-0.271 -4.705,2.91 0,0 -2.522,-5.292 2.884,-6.177 0,0 1.42,-0.254 3.69,0.117 0,0 1.234,0.17 2.068,0.17 l 3.467,3.461 c 0,0 -2.635,-3.497 1.965,-5.75 0,0 0.621,-0.635 5.328,0.81 0,0 0.529,0.057 8.821,3.224 0,0 1.778,0.731 5.335,0.671 0,0 -2.443,2.918 -4.506,0.697 0,0 -0.32,0.364 -0.24,0.756 0,0 0.119,0.316 0.689,0.787 0,0 0.99,0.611 0.933,1.571 l -3.451,-0.688 -0.353,1.732 c 0,0 -1.283,-0.26 -4.271,-2.599 0,0 -3.872,-3.75 -7.683,-3.101 0,0 -1.006,0.013 -1.006,0.417 0,0 -0.12,0.357 0.228,0.91 0,0 2.396,4.739 6.85,2.284 0,0 3.16,2.854 5.248,3.475 0,0 1.171,0.443 3.057,-0.015 v -1.034 c 0,0 0.75,0.374 1.701,0.374 0,0 0.371,-0.006 1.102,-0.296 0,0 0.367,-0.222 0.738,0.148 0,0 0.481,0.459 1.016,1.497 l -3.175,0.356 c 0,0 2.712,2.418 2.769,6.567 l -3.804,-3.463 c 0,0 -0.539,0.806 -1.472,1.738 0,0 -0.683,0.671 -0.892,1.112 0,0 -0.499,-1.241 -1.625,-2.369 0,0 -0.559,-0.37 -0.628,-0.604 0,0 -0.761,-0.153 -2.651,2.194 l -2.766,-2.409 -2.828,2.409 c 0,0 -2.307,-5.902 -6.856,-6.221 l -0.691,0.689 c 0,0 1.797,1.425 3.383,2.509 0,0 2.841,1.705 3.537,4.762 l 4.146,-2.079 c 0,0 0.406,2.407 1.037,2.426 0,0 0.407,0.528 2.119,-1.064 0,0 2.337,-3.016 3.419,1.064 0,0 0.715,0.281 1.654,-0.837 0,0 0.69,-1.25 1.114,-1.25 0,0 0.477,1.029 2.134,2.135 0,0 2.495,1.78 1.67,3.406 l -2.417,-2.417 -1.004,2 c 0,0 -0.585,0.491 -1.632,-0.813 0,0 -0.766,-1.068 -1.52,-1.545 l -3.11,2.774 -2.428,-3.368 -2.415,2.683 -1.386,-3.116 -3.458,3.801 c 0,0 0.401,0.478 0.635,0.478 0,0 0.223,0.114 0.813,-0.478 0,0 0.497,-0.699 1.104,-0.263 l 2.291,1.647 1.725,-2.069 3.811,2.416 c 0,0 0.541,-0.343 0.823,-1.164 0,0 0.334,-1.333 1.249,-1.252 l 3.114,3.452 1.721,-2.417 c 0,0 3.087,1.544 1.744,6.219 l -3.465,-2.775 -2.416,2.775 -2.078,-4.148 c 0,0 -1.086,0.143 -1.604,1.301 -10e-4,0 -0.78,1.893 -1.774,1.991 z"
   inkscape:connector-curvature="0"
   style="fill:#ffffff" />
	<path
   id="path135"
   d="m 109.709,97.364 c 0,0 -3.053,0.326 -4.148,-1.036 0,0 0.582,1.406 2.159,1.498 0,0 1.322,0.205 1.989,-0.462 z"
   inkscape:connector-curvature="0"
   style="fill:#ffffff" />
	<path
   id="path137"
   d="m 100.367,97.71 -1.033,1.045 c 0,0 1.102,-1.021 -2.424,-2.079 0,0 1.013,-0.584 1.891,0.144 -0.001,0 1.161,0.89 1.566,0.89 z"
   inkscape:connector-curvature="0"
   style="fill:#ffffff" />
</g><g
     id="left_bottom">
	<path
   id="path140"
   d="m 93.11,176.555 c -8.304,-1.732 -6.229,-11.764 -9.343,-17.295 l -1.036,0.688 c 1.383,5.879 5.195,13.83 0,18.327 -1.384,1.739 -2.765,3.463 -5.192,3.463 8.3,-10.028 -4.837,-24.557 4.844,-32.158 2.077,9.334 5.191,19.711 10.727,26.975 z"
   inkscape:connector-curvature="0"
   style="fill:#593f1a" />
	<path
   id="path142"
   d="m 93.11,178.624 c 0.342,2.078 -0.691,2.419 -2.076,3.115 -1.728,-0.35 -1.384,-2.766 -1.384,-4.149 l 3.46,1.034 z"
   inkscape:connector-curvature="0"
   style="fill:#593f1a" />
	<path
   id="path144"
   d="m 97.95,181.739 -2.075,2.068 -1.039,-4.487 c 1.73,-0.347 1.73,1.722 3.114,2.419"
   inkscape:connector-curvature="0"
   style="fill:#593f1a" />
	<polygon
   id="polygon146"
   points="94.144,184.843 92.069,183.468 93.11,182.086 "
   style="fill:#593f1a" />
	<path
   id="path148"
   d="m 92.766,186.574 c -1.04,0.696 -2.768,-0.687 -2.076,-2.061 1.729,-0.357 1.379,1.374 2.076,2.061"
   inkscape:connector-curvature="0"
   style="fill:#593f1a" />
	<path
   id="path150"
   d="m 91.035,189.698 c -0.345,-0.705 -4.153,-0.705 -2.417,-2.766 1.381,0 4.148,1.024 2.417,2.766"
   inkscape:connector-curvature="0"
   style="fill:#593f1a" />
	<path
   id="path152"
   d="m 89.999,190.722 v 1.034 l -3.808,-1.382 c 1.032,-1.711 2.768,-0.336 3.808,0.348"
   inkscape:connector-curvature="0"
   style="fill:#593f1a" />
	<path
   id="path154"
   d="m 88.959,193.151 -0.341,1.375 -4.503,-1.724 c 0.692,-3.462 3.459,-0.341 4.844,0.349"
   inkscape:connector-curvature="0"
   style="fill:#593f1a" />
	<path
   id="path156"
   d="m 91.035,201.44 -1.384,0.693 1.039,-1.033 c 0.345,-1.033 -1.039,-0.689 -1.73,-0.689 0.348,-0.344 1.039,-0.693 1.039,-1.381 l -1.733,-0.697 c 0.353,0 0.694,-0.336 0.694,-0.336 -0.694,-1.055 -2.417,-0.35 -3.461,-0.697 -1.039,1.373 -3.115,-0.357 -3.806,-0.686 l -1.383,-2.77 c 0.691,3.098 6.233,2.061 8.65,2.77 -1.033,-2.428 -6.576,0 -6.576,-3.812 3.456,2.427 8.306,3.465 8.651,8.638"
   inkscape:connector-curvature="0"
   style="fill:#593f1a" />
	<polygon
   id="polygon158"
   points="79.618,193.845 79.618,195.229 78.584,193.845 "
   style="fill:#593f1a" />
	<path
   id="path160"
   d="m 78.231,196.614 c -0.338,-0.348 -0.691,-1.047 -1.723,-0.709 v 2.428 L 74.427,197.3 c 0,-2.428 2.771,0 2.771,-2.773 1.033,-10e-4 1.033,1.04 1.033,2.087"
   inkscape:connector-curvature="0"
   style="fill:#593f1a" />
	<path
   id="path162"
   d="m 81.348,199.03 1.036,1.381 c -0.344,0.689 -1.727,0.352 -2.417,0.352 v -1.385 h 0.69 v -1.38 l 2.766,0.675 -2.075,0.357 z"
   inkscape:connector-curvature="0"
   style="fill:#593f1a" />
	<rect
   id="rect164"
   height="1.732"
   width="0.345"
   y="199.03"
   x="75.119003"
   style="fill:#593f1a" />
	<polygon
   id="polygon166"
   points="79.967,201.1 82.039,201.44 82.039,202.133 79.967,201.44 "
   style="fill:#593f1a" />
	<polygon
   id="polygon168"
   points="90.343,202.831 90.343,204.899 89.999,202.831 "
   style="fill:#593f1a" />
	<polygon
   id="polygon170"
   points="81.692,203.518 81.692,205.249 80.657,203.518 "
   style="fill:#593f1a" />
</g><g
     id="right_bottom">
	<path
   id="path173"
   d="m 131.854,185.887 c 0.337,2.068 -2.427,1.045 -2.427,2.417 l -1.036,-0.697 c 1.036,-1.033 2.418,-3.451 3.463,-1.72"
   inkscape:connector-curvature="0"
   style="fill:#593f1a" />
	<path
   id="path175"
   d="m 141.535,180.702 c -2.769,-0.347 -5.869,-2.078 -6.229,-4.834 l 1.385,-9.005 c -2.069,3.115 -3.115,9.693 -8.995,10.727 6.227,-7.612 11.422,-18.329 11.759,-29.392 7.951,9.332 -3.789,21.093 2.08,32.504 z"
   inkscape:connector-curvature="0"
   style="fill:#593f1a" />
	<path
   id="path177"
   d="m 130.458,181.739 c -1.031,0.348 -1.373,-1.037 -2.418,-1.724 l 4.499,-3.46 -2.081,5.184 z"
   inkscape:connector-curvature="0"
   style="fill:#593f1a" />
	<path
   id="path179"
   d="m 124.926,184.156 c -1.024,0.357 -1.38,-0.349 -1.719,-0.688 l 2.759,-3.811 c 1.041,1.045 -0.341,3.126 -1.04,4.499"
   inkscape:connector-curvature="0"
   style="fill:#593f1a" />
	<path
   id="path181"
   d="m 127.356,186.226 c -2.079,-1.383 0.339,-2.758 0.339,-4.14 l 2.418,1.721 -2.757,2.419 z"
   inkscape:connector-curvature="0"
   style="fill:#593f1a" />
	<path
   id="path183"
   d="m 134.27,188.663 -3.812,2.06 c -0.683,-1.382 1.396,-1.729 1.732,-3.115 1.037,-0.676 1.385,0.696 2.08,1.055"
   inkscape:connector-curvature="0"
   style="fill:#593f1a" />
	<path
   id="path185"
   d="m 136.69,191.08 -4.836,1.723 c -0.349,-1.374 1.373,-2.765 2.416,-2.765 1.035,0 2.08,0.337 2.42,1.042"
   inkscape:connector-curvature="0"
   style="fill:#593f1a" />
	<path
   id="path187"
   d="m 132.54,194.872 c 0.351,-2.764 3.811,-1.382 5.532,-2.764 -1.722,1.382 -2.767,3.797 -5.532,2.764"
   inkscape:connector-curvature="0"
   style="fill:#593f1a" />
	<path
   id="path189"
   d="m 143.95,194.526 c 0.351,1.041 -1.382,1.041 -1.73,2.088 l -0.685,-2.088 c -2.081,2.088 -2.081,5.884 -5.869,3.807 1.37,-0.336 3.101,-1.719 4.484,-3.461 l -6.923,1.742 c 3.809,-1.385 7.622,-4.506 10.723,-2.088"
   inkscape:connector-curvature="0"
   style="fill:#593f1a" />
	<polygon
   id="polygon191"
   points="145.682,195.905 144.3,196.942 144.988,195.229 "
   style="fill:#593f1a" />
	<rect
   id="rect193"
   height="0.336"
   width="1.73"
   y="197.99699"
   x="132.53999"
   style="fill:#593f1a" />
	<path
   id="path195"
   d="m 132.191,199.03 v 1.037 l -1.036,-1.395 c 0.35,0 0.699,0 1.036,0.358 z"
   inkscape:connector-curvature="0"
   style="fill:#593f1a" />
	<polygon
   id="polygon197"
   points="146.376,198.672 146.031,201.797 145.682,201.44 146.031,198.672 "
   style="fill:#593f1a" />
	<rect
   id="rect199"
   height="0.34799999"
   width="1.724"
   y="199.03"
   x="138.42599"
   style="fill:#593f1a" />
	<path
   id="path201"
   d="m 131.505,200.762 v 0.678 l -1.047,-1.029 c 0.697,-0.344 0.697,0 1.047,0.351 z"
   inkscape:connector-curvature="0"
   style="fill:#593f1a" />
	<rect
   id="rect203"
   height="0.338"
   width="1.396"
   y="200.76199"
   x="139.45399"
   style="fill:#593f1a" />
	<polygon
   id="polygon205"
   points="138.766,160.645 136.69,166.176 138.072,160.645 "
   style="fill:#231f1a" />
	<polygon
   id="polygon207"
   points="138.766,160.645 136.69,166.176 138.072,160.645 "
   style="fill:#231f20" />
</g><g
     id="shield_and_stars">
	<polygon
   id="polygon210"
   points="19.736,130.27 10.62,129.947 17.434,123.908 14.928,115.171 22.778,119.784 30.319,114.703 28.314,123.634 35.524,129.194 26.43,130.015 23.35,138.618 "
   style="fill:none;stroke:#231f20;stroke-width:0.69999999" />
	<line
   id="line212"
   y2="125.313"
   x2="23.132999"
   y1="114.803"
   x1="30.291"
   style="fill:none;stroke:#231f20;stroke-width:0.69999999" />
	<line
   id="line214"
   y2="125.554"
   x2="22.858999"
   y1="115.171"
   x1="14.928"
   style="fill:none;stroke:#231f20;stroke-width:0.69999999" />
	<line
   id="line216"
   y2="125.554"
   x2="22.858999"
   y1="129.896"
   x1="10.773"
   style="fill:none;stroke:#231f20;stroke-width:0.69999999" />
	<line
   id="line218"
   y2="125.554"
   x2="22.858999"
   y1="138.618"
   x1="23.35"
   style="fill:none;stroke:#231f20;stroke-width:0.69999999" />
	<line
   id="line220"
   y2="125.612"
   x2="23.155001"
   y1="129.194"
   x1="35.523998"
   style="fill:#231f20;stroke:#231f20;stroke-width:0.69999999" />
	<path
   id="path222"
   d="m 19.612,130.32 3.298,-4.819 m 3.52,4.514 -3.52,-4.514 5.403,-1.867 m -5.535,-3.85 0.132,5.717 -5.477,-1.593"
   inkscape:connector-curvature="0"
   style="fill:none;stroke:#231f20;stroke-width:0.69999999" />
	<g
   id="g224">
		<polygon
   id="polygon226"
   points="195.365,130.007 186.248,129.685 193.061,123.645 190.556,114.909 198.406,119.522 205.948,114.441 203.942,123.373 211.152,128.932 202.058,129.752 198.978,138.355 "
   style="fill:none;stroke:#231f20;stroke-width:0.69999999" />
		<line
   id="line228"
   y2="125.051"
   x2="198.75999"
   y1="114.541"
   x1="205.91701"
   style="fill:none;stroke:#231f20;stroke-width:0.69999999" />
		<line
   id="line230"
   y2="125.292"
   x2="198.48801"
   y1="114.909"
   x1="190.556"
   style="fill:none;stroke:#231f20;stroke-width:0.69999999" />
		<line
   id="line232"
   y2="125.292"
   x2="198.48801"
   y1="129.634"
   x1="186.40199"
   style="fill:none;stroke:#231f20;stroke-width:0.69999999" />
		<line
   id="line234"
   y2="125.292"
   x2="198.48801"
   y1="138.355"
   x1="198.978"
   style="fill:none;stroke:#231f20;stroke-width:0.69999999" />
		<line
   id="line236"
   y2="125.35"
   x2="198.784"
   y1="128.93201"
   x1="211.15199"
   style="fill:#231f20;stroke:#231f20;stroke-width:0.69999999" />
		<path
   id="path238"
   d="m 195.241,130.058 3.298,-4.818 m 3.519,4.512 -3.52,-4.513 5.403,-1.867 m -5.535,-3.85 0.133,5.717 -5.478,-1.595"
   inkscape:connector-curvature="0"
   style="fill:none;stroke:#231f20;stroke-width:0.69999999" />
	</g>
	<g
   id="shield">
		<path
   id="path241"
   d="m 137.732,129.521 c 2.418,24.208 -4.842,46.684 -25.947,58.783 -22.825,-10.715 -28.709,-34.575 -26.978,-59.469 10.029,1.382 19.719,-1.384 26.629,-7.264 6.927,5.532 16.259,10.716 26.296,7.95"
   inkscape:connector-curvature="0"
   style="fill:#ffffff" />
		<path
   style="fill:#3c3b6e;fill-opacity:1"
   id="path243"
   d="m 135.305,132.636 v 11.761 H 87.574 v -11.761 c 8.992,-0.349 18.334,-1.035 23.862,-7.95 6.228,5.871 14.886,8.646 23.869,7.95"
   inkscape:connector-curvature="0" />
		<path
   style="fill:#b22234;fill-opacity:1"
   id="path245"
   d="m 134.621,147.162 c -1.046,15.562 -8.654,30.775 -23.529,38.385 -13.834,-8.305 -21.784,-22.823 -22.826,-38.385 h 46.355 z"
   inkscape:connector-curvature="0" />
		
		
		
		
		
		
		<polygon
   id="polygon259"
   points="91.268,142.527 90.151,143.288 90.543,142.006 89.451,141.19 90.824,141.161 91.268,139.898 91.726,141.161 93.097,141.19 92.002,142.006 92.395,143.288 "
   style="fill:#ffffff" />
		<polygon
   id="polygon261"
   points="107.419,141.658 106.294,142.417 106.689,141.144 105.593,140.329 106.963,140.301 107.419,139.037 107.864,140.301 109.239,140.329 108.144,141.144 108.547,142.417 "
   style="fill:#ffffff" />
		<polygon
   id="polygon263"
   points="91.268,136.189 90.151,136.94 90.543,135.667 89.451,134.861 90.824,134.824 91.268,133.561 91.726,134.824 93.097,134.861 92.002,135.667 92.395,136.94 "
   style="fill:#ffffff" />
		<polygon
   id="polygon265"
   points="124.128,141.95 123.003,142.71 123.407,141.428 122.309,140.622 123.684,140.585 124.128,139.322 124.591,140.585 125.956,140.622 124.862,141.428 125.258,142.71 "
   style="fill:#ffffff" />
		<polygon
   id="polygon267"
   points="115.201,141.658 114.075,142.417 114.467,141.144 113.372,140.329 114.742,140.301 115.201,139.037 115.647,140.301 117.025,140.329 115.929,141.144 116.328,142.417 "
   style="fill:#ffffff" />
		<polygon
   id="polygon269"
   points="105.685,133.295 104.556,134.064 104.958,132.782 103.863,131.976 105.231,131.939 105.685,130.685 106.132,131.939 107.51,131.976 106.418,132.782 106.81,134.064 "
   style="fill:#ffffff" />
		<polygon
   id="polygon271"
   points="111.74,129.841 110.611,130.611 111.008,129.329 109.917,128.522 111.286,128.487 111.74,127.212 112.189,128.487 113.566,128.522 112.471,129.329 112.865,130.611 "
   style="fill:#ffffff" />
		<polygon
   id="polygon273"
   points="99.506,142.334 98.378,143.113 98.774,141.822 97.687,141.016 99.058,140.988 99.506,139.726 99.96,140.988 101.331,141.016 100.236,141.822 100.634,143.113 "
   style="fill:#ffffff" />
		<polygon
   id="polygon275"
   points="98.769,135.319 97.642,136.078 98.038,134.797 96.942,133.991 98.313,133.962 98.769,132.699 99.213,133.962 100.59,133.991 99.5,134.797 99.896,136.078 "
   style="fill:#ffffff" />
		<polygon
   id="polygon277"
   points="125.286,135.887 124.159,136.656 124.555,135.375 123.461,134.568 124.834,134.541 125.286,133.276 125.733,134.541 127.108,134.568 126.017,135.375 126.412,136.656 "
   style="fill:#ffffff" />
		<polygon
   id="polygon279"
   points="131.909,142.234 130.791,142.994 131.187,141.722 130.094,140.906 131.467,140.878 131.909,139.614 132.365,140.878 133.738,140.906 132.64,141.722 133.043,142.994 "
   style="fill:#ffffff" />
		<polygon
   id="polygon281"
   points="131.909,136.474 130.791,137.233 131.187,135.96 130.094,135.145 131.467,135.118 131.909,133.854 132.365,135.118 133.738,135.145 132.64,135.96 133.043,137.233 "
   style="fill:#ffffff" />
		<polygon
   id="polygon283"
   points="118.077,133.588 116.951,134.348 117.345,133.075 116.254,132.261 117.627,132.232 118.077,130.968 118.535,132.232 119.91,132.261 118.812,133.075 119.204,134.348 "
   style="fill:#ffffff" />
		<path
   id="path285"
   d="m 137.732,129.521 c 2.418,24.208 -4.842,46.684 -25.947,58.783 -22.825,-10.715 -28.709,-34.575 -26.978,-59.469 10.029,1.382 19.719,-1.384 26.629,-7.264 6.927,5.532 16.259,10.716 26.296,7.95 z"
   stroke-miterlimit="2"
   inkscape:connector-curvature="0"
   style="fill:none;stroke:#231f20;stroke-width:0;stroke-linecap:square;stroke-miterlimit:2" />
	</g>
</g><path
     sodipodi:nodetypes="ccccc"
     id="rect5880"
     d="m 91.698851,147.91664 2.359076,0 0,19.04217 -2.359076,-5.67091 0,-13.37126 z"
     style="fill:#ffffff;fill-opacity:1;fill-rule:evenodd;stroke:#1e0000;stroke-width:0.06060672;stroke-linecap:butt;stroke-linejoin:round;stroke-miterlimit:4;stroke-opacity:0"
     inkscape:connector-curvature="0" /><path
     sodipodi:nodetypes="ccccc"
     id="rect5880-4"
     d="m 115.04371,147.97292 2.35912,0 0,33.2296 -2.14308,1.49671 -0.21604,-34.72631 z"
     style="fill:#ffffff;fill-opacity:1;fill-rule:evenodd;stroke:#1e0000;stroke-width:0.08006243;stroke-linecap:butt;stroke-linejoin:round;stroke-miterlimit:4;stroke-opacity:0"
     inkscape:connector-curvature="0" /><path
     sodipodi:nodetypes="ccccc"
     id="rect5880-9"
     d="m 123.05664,147.94008 2.359,0 0,24.86964 -2.14396,2.70974 -0.21504,-27.57938 z"
     style="fill:#ffffff;fill-opacity:1;fill-rule:evenodd;stroke:#1e0000;stroke-width:0.06926128;stroke-linecap:butt;stroke-linejoin:round;stroke-miterlimit:4;stroke-opacity:0"
     inkscape:connector-curvature="0" /><path
     sodipodi:nodetypes="ccccc"
     id="rect5880-5"
     d="m 129.14123,147.89882 2.35936,0 0,13.29132 -2.14593,4.97473 -0.21343,-18.26605 z"
     style="fill:#ffffff;fill-opacity:1;fill-rule:evenodd;stroke:#1e0000;stroke-width:0.05063736;stroke-linecap:butt;stroke-linejoin:round;stroke-miterlimit:4;stroke-opacity:0"
     inkscape:connector-curvature="0" /><path
     sodipodi:nodetypes="ccccc"
     id="rect5880-3"
     d="m 99.424529,147.94664 2.256751,0 0,29.70446 -2.359685,-2.78923 0.102934,-26.91523 z"
     style="fill:#ffffff;fill-opacity:1;fill-rule:evenodd;stroke:#1e0000;stroke-width:0.06944037;stroke-linecap:butt;stroke-linejoin:round;stroke-miterlimit:4;stroke-opacity:0"
     inkscape:connector-curvature="0" /><path
     sodipodi:nodetypes="ccccc"
     id="rect5880-37"
     d="m 107.24013,147.97737 2.35858,0 0,36.34615 -2.35858,-1.73209 0,-34.61406 z"
     style="fill:#ffffff;fill-opacity:1;fill-rule:evenodd;stroke:#1e0000;stroke-width:0.08170418;stroke-linecap:butt;stroke-linejoin:round;stroke-miterlimit:4;stroke-opacity:0"
     inkscape:connector-curvature="0" /></g></svg>